# Alias OBJ Model File
# Exported from SketchUp, (c) 2000-2012 Trimble Navigation Limited
# File units = meters

mtllib flap.mtl

g Mesh1 flap1 Model

usemtl FrontColor
v -0.112696 16.6572 5.8875
vt 8.7186 583.452
vn 0.994984 0.0173513 0.0985133
v -0.0126957 24.0731 3.57134
vt 99.8504 875.458
v -0.112696 24.0731 4.58134
vt 59.8922 875.458
f 1/1/1 2/2/1 3/3/1

vt 99.8286 875.547
vn 0.99874 0.00219312 0.0501423
vt 8.55831 583.584
v -0.0126957 16.6901 3.89425
vt 87.1314 584.88
f 2/4/2 1/5/2 4/6/2

v -0.212696 24.0731 3.57134
vt -4.71622e-14 865.423
vn -4.5217e-16 0.298124 0.954527
vt 3.93701 559.551
vt 7.87402 865.423
f 5/7/3 1/8/3 2/9/3

vt -8.16349 583.601
vn -0.99874 0.00219312 0.0501423
vt -99.4338 875.565
v -0.212696 16.6901 3.89425
vt -86.7366 584.897
f 1/10/4 5/11/4 6/12/4

vt -99.0746 875.594
vn -0.994984 0.0173513 0.0985133
vt -7.94279 583.588
vt -59.1164 875.594
f 5/13/5 1/14/5 3/15/5

vt 3.93701 59.7952
vn 0 1 -0
vt 7.87402 99.559
vt 0 99.559
f 3/16/6 2/17/6 5/18/6

vt -9.08166e-14 588.125
vn -6.38623e-17 -0.0436961 -0.999045
vt -6.36415e-15 879.07
vt -7.87402 879.07
vt -7.87402 588.125
f 6/19/7 5/20/7 2/21/7 4/22/7 

vt 6.56185e-14 586.053
vn -2.17368e-16 0.277064 0.960851
v -0.112696 9.04019 6.10014
vt 3.93701 272.603
vt 7.87402 586.053
f 6/23/8 7/24/8 4/25/8

vt -86.7366 584.894
vn -0.998742 0.00139939 0.0501293
vt 0.19736 283.715
vt -8.16354 583.599
f 6/26/9 7/27/9 1/28/9

vt 0.170478 283.708
vn -0.999062 -0.000573622 0.0433015
vt -86.7644 584.887
v -0.212696 9.10079 3.79371
vt -90.7188 286.094
f 7/29/10 6/30/10 8/31/10

vt 5.70633e-16 284.868
vn 6.28368e-18 0.013246 -0.999912
vt -8.47194e-14 583.687
vt -7.87402 583.687
v -0.0126957 9.10079 3.79371
vt -7.87402 284.868
f 8/32/11 6/33/11 4/34/11 9/35/11 

vt 7.71238e-14 96.4892
vn -1.54753e-18 0.999864 0.0165078
vt 3.93701 18.0041
vt 7.87402 96.4892
f 6/36/12 1/37/12 4/38/12

vt 0.19736 283.704
vn 0.998742 0.00139939 0.0501293
vt 87.1314 584.883
vt 8.55826 583.588
f 7/39/13 4/40/13 1/41/13

vt 87.1053 584.891
vn 0.999062 -0.000573622 0.0433015
vt 0.170478 283.712
vt 91.0598 286.098
f 4/42/14 7/43/14 9/44/14

v -0.112696 1.83395 5.40172
vt 27.6411 0.0114959
vn 0.999057 -0.00418748 0.0432063
vt 91.0594 286.11
vt 0.170105 283.724
f 10/45/15 9/46/15 7/47/15

vt 2.03932e-14 298.957
vn 2.19281e-16 0.216053 0.976382
vt 3.93701 5.94076
vt 7.87402 298.957
f 8/48/16 10/49/16 9/50/16

vt -90.7192 286.077
vn -0.999057 -0.00418748 0.0432063
vt -27.3009 -0.0214457
vt 0.170105 283.691
f 8/51/17 10/52/17 7/53/17

vt -27.2963 -0.02053
vn -0.999019 -0.00398971 0.0440977
vt -90.7157 286.078
v -0.212696 1.91016 3.14315
vt -116.304 2.97994
f 10/54/18 8/55/18 11/56/18

vt -1.1364e-13 -7.50164
vn 3.998e-19 0.0901062 -0.995932
vt 3.64517e-17 276.75
vt -7.87402 276.75
v -0.0126957 1.91016 3.14315
vt -7.87402 -7.50164
f 11/57/19 8/58/19 9/59/19 12/60/19 

vt 2.56828e-14 98.288
vn 7.42972e-18 0.999655 0.0262685
vt 3.93701 7.45265
vt 7.87402 98.288
f 8/61/20 7/62/20 9/63/20

vt 91.0629 286.109
vn 0.999019 -0.00398971 0.0440977
vt 27.6436 0.0108545
vt 116.651 3.01133
f 9/64/21 10/65/21 12/66/21

vt -7.87402 116.452
vn 1.2836e-17 -0.999431 -0.033724
vt -3.93701 27.4811
vt -6.93763e-14 116.452
f 12/67/22 10/68/22 11/69/22

