<?xml version="1.0" encoding="UTF-8" standalone="no" ?>
<COLLADA xmlns="http://www.collada.org/2005/11/COLLADASchema" version="1.4.1">
    <asset>
        <contributor>
            <authoring_tool>SketchUp 24.0.594</authoring_tool>
        </contributor>
        <created>2026-09-17T00:07:46Z</created>
        <modified>2026-09-17T00:07:46Z</modified>
        <unit meter="0.0254" name="inch" />
        <up_axis>Z_UP</up_axis>
    </asset>
    <library_cameras>
        <camera id="ID1" name="skp_camera_Last_Saved_SketchUp_View">
            <optics>
                <technique_common>
                    <perspective>
                        <yfov>35</yfov>
                        <aspect_ratio>0</aspect_ratio>
                        <znear>1</znear>
                        <zfar>1000</zfar>
                    </perspective>
                </technique_common>
            </optics>
        </camera>
    </library_cameras>
    <library_visual_scenes>
        <visual_scene id="ID2">
            <node name="SketchUp">
                <node name="skp_camera_Last_Saved_SketchUp_View">
                    <matrix>0.5682286 -0.1055886 0.8160682 3038.142 0.8228707 0.07291359 -0.5635312 -2182.456 0 0.9917331 0.1283174 679.8918 0 0 0 1</matrix>
                    <instance_camera url="#ID1" />
                </node>
                <node id="ID3" name="instance_0">
                    <matrix>1 0 0 -8.373845 0 1 0 -240.1628 0 0 1 72.20286 0 0 0 1</matrix>
                    <instance_node url="#ID4" />
                </node>
            </node>
        </visual_scene>
    </library_visual_scenes>
    <library_nodes>
        <node id="ID4" name="flap">
            <instance_geometry url="#ID5">
                <bind_material>
                    <technique_common>
                        <instance_material symbol="Material2" target="#ID7">
                            <bind_vertex_input semantic="UVSET0" input_semantic="TEXCOORD" input_set="0" />
                        </instance_material>
                    </technique_common>
                </bind_material>
            </instance_geometry>
        </node>
    </library_nodes>
    <library_geometries>
        <geometry id="ID5">
            <mesh>
                <source id="ID8">
                    <float_array id="ID11" count="207">7.874016 99.559 875.5558 3.937008 59.79522 875.5558 3.937008 8.371428 583.5932 7.874016 99.559 875.5558 3.937008 8.371428 583.5932 7.874016 86.84584 584.8888 0 99.559 875.5558 3.937008 8.371428 583.5932 7.874016 99.559 875.5558 7.874016 99.559 875.5558 0 99.559 875.5558 3.937008 59.79522 875.5558 0 99.559 875.5558 3.937008 8.371428 583.5932 3.937008 59.79522 875.5558 7.874016 86.84584 584.8888 8.526513e-14 86.84584 584.8888 3.937008 8.371428 583.5932 7.874016 86.84584 584.8888 3.937008 8.371428 583.5932 3.937008 0 283.71 0 99.559 875.5558 7.874016 86.84584 584.8888 8.526513e-14 86.84584 584.8888 7.874016 99.559 875.5558 0 99.559 875.5558 8.526513e-14 86.84584 584.8888 3.937008 8.371428 583.5932 8.526513e-14 86.84584 584.8888 3.937008 0 283.71 3.937008 8.371428 583.5932 8.526513e-14 86.84584 584.8888 3.937008 0 283.71 7.874016 86.84584 584.8888 8.526513e-14 86.84584 584.8888 7.874016 90.80399 286.0961 0 90.80399 286.0961 7.874016 86.84584 584.8888 7.874016 90.80399 286.0961 7.874016 86.84584 584.8888 3.937008 0 283.71 0 90.80399 286.0961 3.937008 0 283.71 8.526513e-14 86.84584 584.8888 0 90.80399 286.0961 3.937008 27.49671 0 7.874016 90.80399 286.0961 0 90.80399 286.0961 7.874016 116.4169 3.00045 1.136868e-13 116.4169 3.00045 7.874016 90.80399 286.0961 7.874016 90.80399 286.0961 0 90.80399 286.0961 3.937008 0 283.71 7.874016 90.80399 286.0961 3.937008 0 283.71 3.937008 27.49671 0 0 90.80399 286.0961 3.937008 27.49671 0 3.937008 0 283.71 1.136868e-13 116.4169 3.00045 3.937008 27.49671 0 0 90.80399 286.0961 7.874016 116.4169 3.00045 7.874016 90.80399 286.0961 3.937008 27.49671 0 7.874016 116.4169 3.00045 3.937008 27.49671 0 1.136868e-13 116.4169 3.00045</float_array>
                    <technique_common>
                        <accessor count="69" source="#ID11" stride="3">
                            <param name="X" type="float" />
                            <param name="Y" type="float" />
                            <param name="Z" type="float" />
                        </accessor>
                    </technique_common>
                </source>
                <source id="ID9">
                    <float_array id="ID12" count="207">0.9949845 -0.09851331 0.01735129 0.9949845 -0.09851331 0.01735129 0.9949845 -0.09851331 0.01735129 0.9987397 -0.0501423 0.002193119 0.9987397 -0.0501423 0.002193119 0.9987397 -0.0501423 0.002193119 -4.5217e-16 -0.9545272 0.2981239 -4.5217e-16 -0.9545272 0.2981239 -4.5217e-16 -0.9545272 0.2981239 0 0 1 0 0 1 0 0 1 -0.9949845 -0.09851331 0.01735129 -0.9949845 -0.09851331 0.01735129 -0.9949845 -0.09851331 0.01735129 -1.547526e-18 -0.0165078 0.9998637 -1.547526e-18 -0.0165078 0.9998637 -1.547526e-18 -0.0165078 0.9998637 0.9987418 -0.0501293 0.001399391 0.9987418 -0.0501293 0.001399391 0.9987418 -0.0501293 0.001399391 -6.386232e-17 0.9990449 -0.04369612 -6.386232e-17 0.9990449 -0.04369612 -6.386232e-17 0.9990449 -0.04369612 -6.386232e-17 0.9990449 -0.04369612 -0.9987397 -0.0501423 0.002193119 -0.9987397 -0.0501423 0.002193119 -0.9987397 -0.0501423 0.002193119 -0.9987418 -0.0501293 0.001399391 -0.9987418 -0.0501293 0.001399391 -0.9987418 -0.0501293 0.001399391 -2.173678e-16 -0.9608513 0.2770645 -2.173678e-16 -0.9608513 0.2770645 -2.173678e-16 -0.9608513 0.2770645 6.28368e-18 0.9999123 0.013246 6.28368e-18 0.9999123 0.013246 6.28368e-18 0.9999123 0.013246 6.28368e-18 0.9999123 0.013246 0.9990619 -0.04330146 -0.0005736217 0.9990619 -0.04330146 -0.0005736217 0.9990619 -0.04330146 -0.0005736217 -0.9990619 -0.04330146 -0.0005736217 -0.9990619 -0.04330146 -0.0005736217 -0.9990619 -0.04330146 -0.0005736217 2.192809e-16 -0.9763815 0.2160535 2.192809e-16 -0.9763815 0.2160535 2.192809e-16 -0.9763815 0.2160535 3.997999e-19 0.9959322 0.0901062 3.997999e-19 0.9959322 0.0901062 3.997999e-19 0.9959322 0.0901062 3.997999e-19 0.9959322 0.0901062 7.429721e-18 -0.02626853 0.9996549 7.429721e-18 -0.02626853 0.9996549 7.429721e-18 -0.02626853 0.9996549 0.9990574 -0.04320631 -0.004187484 0.9990574 -0.04320631 -0.004187484 0.9990574 -0.04320631 -0.004187484 -0.9990574 -0.04320631 -0.004187484 -0.9990574 -0.04320631 -0.004187484 -0.9990574 -0.04320631 -0.004187484 -0.9990193 -0.04409772 -0.003989707 -0.9990193 -0.04409772 -0.003989707 -0.9990193 -0.04409772 -0.003989707 0.9990193 -0.04409772 -0.003989707 0.9990193 -0.04409772 -0.003989707 0.9990193 -0.04409772 -0.003989707 1.283602e-17 0.033724 -0.9994312 1.283602e-17 0.033724 -0.9994312 1.283602e-17 0.033724 -0.9994312</float_array>
                    <technique_common>
                        <accessor count="69" source="#ID12" stride="3">
                            <param name="X" type="float" />
                            <param name="Y" type="float" />
                            <param name="Z" type="float" />
                        </accessor>
                    </technique_common>
                </source>
                <vertices id="ID10">
                    <input semantic="POSITION" source="#ID8" />
                    <input semantic="NORMAL" source="#ID9" />
                </vertices>
                <triangles count="25" material="Material2">
                    <input offset="0" semantic="VERTEX" source="#ID10" />
                    <p>0 1 2 3 4 5 6 7 8 9 10 11 12 13 14 15 16 17 18 19 20 21 22 23 22 21 24 25 26 27 28 29 30 31 32 33 34 35 36 35 34 37 38 39 40 41 42 43 44 45 46 47 48 49 48 47 50 51 52 53 54 55 56 57 58 59 60 61 62 63 64 65 66 67 68</p>
                </triangles>
            </mesh>
        </geometry>
    </library_geometries>
    <library_materials>
        <material id="ID7" name="material">
            <instance_effect url="#ID6" />
        </material>
    </library_materials>
    <library_effects>
        <effect id="ID6">
            <profile_COMMON>
                <technique sid="COMMON">
                    <lambert>
                        <diffuse>
                            <color>1 1 1 1</color>
                        </diffuse>
                    </lambert>
                </technique>
            </profile_COMMON>
        </effect>
    </library_effects>
    <scene>
        <instance_visual_scene url="#ID2" />
    </scene>
</COLLADA>
