<?xml version="1.0" encoding="UTF-8" standalone="no" ?>
<COLLADA xmlns="http://www.collada.org/2005/11/COLLADASchema" version="1.4.1">
    <asset>
        <contributor>
            <authoring_tool>SketchUp 24.0.594</authoring_tool>
        </contributor>
        <created>2026-09-17T00:07:00Z</created>
        <modified>2026-09-17T00:07:00Z</modified>
        <unit meter="0.0254" name="inch" />
        <up_axis>Z_UP</up_axis>
    </asset>
    <library_cameras>
        <camera id="ID1" name="skp_camera_Last_Saved_SketchUp_View">
            <optics>
                <technique_common>
                    <perspective>
                        <yfov>35</yfov>
                        <aspect_ratio>0</aspect_ratio>
                        <znear>1</znear>
                        <zfar>1000</zfar>
                    </perspective>
                </technique_common>
            </optics>
        </camera>
    </library_cameras>
    <library_visual_scenes>
        <visual_scene id="ID2">
            <node name="SketchUp">
                <node name="skp_camera_Last_Saved_SketchUp_View">
                    <matrix>0.5682286 -0.1055886 0.8160682 3038.142 0.8228707 0.07291359 -0.5635312 -2182.456 0 0.9917331 0.1283174 679.8918 0 0 0 1</matrix>
                    <instance_camera url="#ID1" />
                </node>
                <node id="ID3" name="instance_0">
                    <matrix>1 0 0 -174.0157 0 1 0 -287.449 0 0 1 -127.9528 0 0 0 1</matrix>
                    <instance_node url="#ID4" />
                </node>
            </node>
        </visual_scene>
    </library_visual_scenes>
    <library_nodes>
        <node id="ID4" name="foils">
            <node id="ID5" name="group_0">
                <matrix>1 0 0 270.5224 0 1 0 0.02461709 0 0 1 0.0001781653 0 0 0 1</matrix>
                <instance_geometry url="#ID6">
                    <bind_material>
                        <technique_common>
                            <instance_material symbol="Material2" target="#ID8">
                                <bind_vertex_input semantic="UVSET0" input_semantic="TEXCOORD" input_set="0" />
                            </instance_material>
                        </technique_common>
                    </bind_material>
                </instance_geometry>
                <instance_geometry url="#ID14">
                    <bind_material>
                        <technique_common>
                            <instance_material symbol="Material2" target="#ID8">
                                <bind_vertex_input semantic="UVSET0" input_semantic="TEXCOORD" input_set="0" />
                            </instance_material>
                        </technique_common>
                    </bind_material>
                </instance_geometry>
            </node>
            <node id="ID20" name="group_1">
                <matrix>1 0 0 0 0 1 0 0 0 0 1 0 0 0 0 1</matrix>
                <instance_geometry url="#ID21">
                    <bind_material>
                        <technique_common>
                            <instance_material symbol="Material2" target="#ID8">
                                <bind_vertex_input semantic="UVSET0" input_semantic="TEXCOORD" input_set="0" />
                            </instance_material>
                        </technique_common>
                    </bind_material>
                </instance_geometry>
                <instance_geometry url="#ID27">
                    <bind_material>
                        <technique_common>
                            <instance_material symbol="Material2" target="#ID8">
                                <bind_vertex_input semantic="UVSET0" input_semantic="TEXCOORD" input_set="0" />
                            </instance_material>
                        </technique_common>
                    </bind_material>
                </instance_geometry>
            </node>
        </node>
    </library_nodes>
    <library_geometries>
        <geometry id="ID6">
            <mesh>
                <source id="ID9">
                    <float_array id="ID12" count="123">39.37008 236.7246 158.2675 38.97638 255.2285 158.2675 38.58268 236.7246 158.2675 38.97638 255.2285 0.7872234 38.58268 236.7246 158.2675 38.58268 236.7246 0.7872234 38.97638 255.2285 158.2675 38.58268 236.7246 158.2675 39.37008 236.7246 0.7872234 38.58268 236.7246 0.7872234 39.37008 236.7246 158.2675 38.97638 255.2285 158.2675 39.37008 236.7246 0.7872234 39.37008 236.7246 158.2675 38.97638 255.2285 0.7872234 39.37008 236.7246 0.7872234 38.58268 236.7246 0.7872234 38.97638 255.2285 0.7872234 1.136868e-13 255.2327 0.7872234 38.97638 255.2285 0.7872234 4.547474e-13 236.7246 0.7872234 78.74016 255.2327 0.7872234 38.58268 236.7246 0.7872234 39.37008 236.7246 0.7872234 78.74016 236.7246 0.7872234 0 236.7414 3.410605e-13 78.74016 236.7246 0.7872234 78.74016 236.7414 0 4.547474e-13 236.7246 0.7872234 38.58268 236.7246 0.7872234 39.37008 236.7246 0.7872234 1.136868e-13 255.2327 0.7872234 4.547474e-13 236.7246 0.7872234 0 236.7414 3.410605e-13 78.74016 236.7414 0 1.136868e-13 255.2327 0.7872234 0 236.7414 3.410605e-13 78.74016 255.2327 0.7872234 78.74016 255.2327 0.7872234 78.74016 236.7246 0.7872234 78.74016 236.7414 0</float_array>
                    <technique_common>
                        <accessor count="41" source="#ID12" stride="3">
                            <param name="X" type="float" />
                            <param name="Y" type="float" />
                            <param name="Z" type="float" />
                        </accessor>
                    </technique_common>
                </source>
                <source id="ID10">
                    <float_array id="ID13" count="123">0 0 1 0 0 1 0 0 1 0.9997737 -0.02127178 0 0.9997737 -0.02127178 0 0.9997737 -0.02127178 0 0.9997737 -0.02127178 0 0 1 0 0 1 0 0 1 0 0 1 0 -0.9997737 -0.02127178 -1.432219e-19 -0.9997737 -0.02127178 -1.432219e-19 -0.9997737 -0.02127178 -1.432219e-19 -0.9997737 -0.02127178 -1.432219e-19 0 0 -1 0 0 -1 0 0 -1 -1.443313e-15 2.230854e-15 -1 -1.443313e-15 2.230854e-15 -1 -1.443313e-15 2.230854e-15 -1 -1.443313e-15 2.230854e-15 -1 -1.443313e-15 2.230854e-15 -1 -1.443313e-15 2.230854e-15 -1 -1.443313e-15 2.230854e-15 -1 0 0.9997737 0.02127178 0 0.9997737 0.02127178 0 0.9997737 0.02127178 0 0.9997737 0.02127178 0 0.9997737 0.02127178 0 0.9997737 0.02127178 1 1.842761e-14 -5.772678e-13 1 1.842761e-14 -5.772678e-13 1 1.842761e-14 -5.772678e-13 3.608725e-15 -0.04253394 0.999095 3.608725e-15 -0.04253394 0.999095 3.608725e-15 -0.04253394 0.999095 3.608725e-15 -0.04253394 0.999095 1 2.457015e-14 5.227691e-16 1 2.457015e-14 5.227691e-16 1 2.457015e-14 5.227691e-16</float_array>
                    <technique_common>
                        <accessor count="41" source="#ID13" stride="3">
                            <param name="X" type="float" />
                            <param name="Y" type="float" />
                            <param name="Z" type="float" />
                        </accessor>
                    </technique_common>
                </source>
                <vertices id="ID11">
                    <input semantic="POSITION" source="#ID9" />
                    <input semantic="NORMAL" source="#ID10" />
                </vertices>
                <triangles count="21" material="Material2">
                    <input offset="0" semantic="VERTEX" source="#ID11" />
                    <p>0 1 2 3 4 5 4 3 6 7 8 9 8 7 10 11 12 13 12 11 14 15 16 17 18 19 20 19 18 21 20 19 22 19 21 23 23 21 24 25 26 27 26 25 28 26 28 29 26 29 30 31 32 33 34 35 36 35 34 37 38 39 40</p>
                </triangles>
            </mesh>
        </geometry>
        <geometry id="ID14">
            <mesh>
                <source id="ID15">
                    <float_array id="ID18" count="156">38.97638 11.02362 140.7913 39.37008 2.273737e-13 47.09049 39.37008 2.273737e-13 140.7913 39.37008 2.273737e-13 46.30309 38.97638 11.02362 46.30309 38.97638 11.02362 46.69679 39.37008 2.273737e-13 47.09049 59.05512 0 46.30309 39.37008 2.273737e-13 46.30309 59.05512 0 47.09049 38.58268 2.273737e-13 47.09049 39.37008 2.273737e-13 46.30309 38.58268 2.273737e-13 46.30309 39.37008 2.273737e-13 47.09049 39.37008 2.273737e-13 140.7913 38.58268 2.273737e-13 140.7913 39.37008 2.273737e-13 140.7913 38.97638 11.02362 140.7913 38.58268 2.273737e-13 140.7913 38.97638 11.02362 46.30309 38.58268 2.273737e-13 47.09049 38.58268 2.273737e-13 46.30309 38.58268 2.273737e-13 140.7913 38.97638 11.02362 140.7913 38.97638 11.02362 46.69679 39.37008 2.273737e-13 46.30309 38.97638 11.02362 46.30309 38.58268 2.273737e-13 46.30309 19.68504 0 46.30309 38.97638 11.02362 46.69679 19.68504 11.02362 46.69679 38.58268 2.273737e-13 46.30309 39.37008 2.273737e-13 46.30309 59.05512 11.02362 46.69679 59.05512 0 46.30309 38.97638 11.02362 46.69679 19.68504 0 47.09049 19.68504 11.02362 46.69679 38.58268 2.273737e-13 47.09049 39.37008 2.273737e-13 47.09049 59.05512 11.02362 46.69679 59.05512 0 47.09049 59.05512 11.02362 46.69679 59.05512 0 46.30309 59.05512 0 47.09049 19.68504 0 47.09049 38.58268 2.273737e-13 46.30309 19.68504 0 46.30309 38.58268 2.273737e-13 47.09049 19.68504 11.02362 46.69679 19.68504 0 46.30309 19.68504 0 47.09049</float_array>
                    <technique_common>
                        <accessor count="52" source="#ID18" stride="3">
                            <param name="X" type="float" />
                            <param name="Y" type="float" />
                            <param name="Z" type="float" />
                        </accessor>
                    </technique_common>
                </source>
                <source id="ID16">
                    <float_array id="ID19" count="156">-0.9993629 -0.03569153 -4.053607e-18 -0.9993629 -0.03569153 -4.053607e-18 -0.9993629 -0.03569153 -4.053607e-18 -0.9993629 -0.03569153 -4.053607e-18 -0.9993629 -0.03569153 -4.053607e-18 -0.9993629 -0.03569153 -4.053607e-18 1.155058e-14 1 -1.609069e-29 1.155058e-14 1 -1.609069e-29 1.155058e-14 1 -1.609069e-29 1.155058e-14 1 -1.609069e-29 0 1 0 0 1 0 0 1 0 0 1 0 0 1 0 0 1 0 0 0 1 0 0 1 0 0 1 0.9993629 -0.03569153 6.627039e-19 0.9993629 -0.03569153 6.627039e-19 0.9993629 -0.03569153 6.627039e-19 0.9993629 -0.03569153 6.627039e-19 0.9993629 -0.03569153 6.627039e-19 0.9993629 -0.03569153 6.627039e-19 0 0 1 0 0 1 0 0 1 -8.65572e-15 -0.03569153 0.9993629 -8.65572e-15 -0.03569153 0.9993629 -8.65572e-15 -0.03569153 0.9993629 -8.65572e-15 -0.03569153 0.9993629 -8.65572e-15 -0.03569153 0.9993629 -8.65572e-15 -0.03569153 0.9993629 -8.65572e-15 -0.03569153 0.9993629 1.006567e-14 -0.03569153 -0.9993629 1.006567e-14 -0.03569153 -0.9993629 1.006567e-14 -0.03569153 -0.9993629 1.006567e-14 -0.03569153 -0.9993629 1.006567e-14 -0.03569153 -0.9993629 1.006567e-14 -0.03569153 -0.9993629 1.006567e-14 -0.03569153 -0.9993629 -1 0 0 -1 0 0 -1 0 0 -1.203186e-14 1 -6.934905e-27 -1.203186e-14 1 -6.934905e-27 -1.203186e-14 1 -6.934905e-27 -1.203186e-14 1 -6.934905e-27 -1 -4.125208e-14 -1.155058e-12 -1 -4.125208e-14 -1.155058e-12 -1 -4.125208e-14 -1.155058e-12</float_array>
                    <technique_common>
                        <accessor count="52" source="#ID19" stride="3">
                            <param name="X" type="float" />
                            <param name="Y" type="float" />
                            <param name="Z" type="float" />
                        </accessor>
                    </technique_common>
                </source>
                <vertices id="ID17">
                    <input semantic="POSITION" source="#ID15" />
                    <input semantic="NORMAL" source="#ID16" />
                </vertices>
                <triangles count="30" material="Material2">
                    <input offset="0" semantic="VERTEX" source="#ID17" />
                    <p>0 1 2 1 0 3 3 0 4 4 0 5 6 7 8 7 6 9 10 11 12 11 10 13 10 14 13 14 10 15 16 17 18 19 20 21 20 19 22 22 19 23 23 19 24 25 26 27 28 29 30 29 28 31 29 31 32 29 32 33 33 32 34 35 36 37 36 35 38 38 35 39 39 35 40 39 40 41 42 43 44 45 46 47 46 45 48 49 50 51</p>
                </triangles>
            </mesh>
        </geometry>
        <geometry id="ID21">
            <mesh>
                <source id="ID22">
                    <float_array id="ID25" count="123">39.37008 236.7246 158.2675 38.97638 255.2285 158.2675 38.58268 236.7246 158.2675 38.97638 255.2285 0.7872234 38.58268 236.7246 158.2675 38.58268 236.7246 0.7872234 38.97638 255.2285 158.2675 38.58268 236.7246 158.2675 39.37008 236.7246 0.7872234 38.58268 236.7246 0.7872234 39.37008 236.7246 158.2675 38.97638 255.2285 158.2675 39.37008 236.7246 0.7872234 39.37008 236.7246 158.2675 38.97638 255.2285 0.7872234 39.37008 236.7246 0.7872234 38.58268 236.7246 0.7872234 38.97638 255.2285 0.7872234 1.136868e-13 255.2327 0.7872234 38.97638 255.2285 0.7872234 4.547474e-13 236.7246 0.7872234 78.74016 255.2327 0.7872234 38.58268 236.7246 0.7872234 39.37008 236.7246 0.7872234 78.74016 236.7246 0.7872234 0 236.7414 3.410605e-13 78.74016 236.7246 0.7872234 78.74016 236.7414 0 4.547474e-13 236.7246 0.7872234 38.58268 236.7246 0.7872234 39.37008 236.7246 0.7872234 1.136868e-13 255.2327 0.7872234 4.547474e-13 236.7246 0.7872234 0 236.7414 3.410605e-13 78.74016 236.7414 0 1.136868e-13 255.2327 0.7872234 0 236.7414 3.410605e-13 78.74016 255.2327 0.7872234 78.74016 255.2327 0.7872234 78.74016 236.7246 0.7872234 78.74016 236.7414 0</float_array>
                    <technique_common>
                        <accessor count="41" source="#ID25" stride="3">
                            <param name="X" type="float" />
                            <param name="Y" type="float" />
                            <param name="Z" type="float" />
                        </accessor>
                    </technique_common>
                </source>
                <source id="ID23">
                    <float_array id="ID26" count="123">0 0 1 0 0 1 0 0 1 0.9997737 -0.02127178 0 0.9997737 -0.02127178 0 0.9997737 -0.02127178 0 0.9997737 -0.02127178 0 0 1 0 0 1 0 0 1 0 0 1 0 -0.9997737 -0.02127178 -1.432219e-19 -0.9997737 -0.02127178 -1.432219e-19 -0.9997737 -0.02127178 -1.432219e-19 -0.9997737 -0.02127178 -1.432219e-19 0 0 -1 0 0 -1 0 0 -1 -1.443313e-15 2.230854e-15 -1 -1.443313e-15 2.230854e-15 -1 -1.443313e-15 2.230854e-15 -1 -1.443313e-15 2.230854e-15 -1 -1.443313e-15 2.230854e-15 -1 -1.443313e-15 2.230854e-15 -1 -1.443313e-15 2.230854e-15 -1 0 0.9997737 0.02127178 0 0.9997737 0.02127178 0 0.9997737 0.02127178 0 0.9997737 0.02127178 0 0.9997737 0.02127178 0 0.9997737 0.02127178 1 1.842761e-14 -5.772678e-13 1 1.842761e-14 -5.772678e-13 1 1.842761e-14 -5.772678e-13 3.608725e-15 -0.04253394 0.999095 3.608725e-15 -0.04253394 0.999095 3.608725e-15 -0.04253394 0.999095 3.608725e-15 -0.04253394 0.999095 1 2.457015e-14 5.227691e-16 1 2.457015e-14 5.227691e-16 1 2.457015e-14 5.227691e-16</float_array>
                    <technique_common>
                        <accessor count="41" source="#ID26" stride="3">
                            <param name="X" type="float" />
                            <param name="Y" type="float" />
                            <param name="Z" type="float" />
                        </accessor>
                    </technique_common>
                </source>
                <vertices id="ID24">
                    <input semantic="POSITION" source="#ID22" />
                    <input semantic="NORMAL" source="#ID23" />
                </vertices>
                <triangles count="21" material="Material2">
                    <input offset="0" semantic="VERTEX" source="#ID24" />
                    <p>0 1 2 3 4 5 4 3 6 7 8 9 8 7 10 11 12 13 12 11 14 15 16 17 18 19 20 19 18 21 20 19 22 19 21 23 23 21 24 25 26 27 26 25 28 26 28 29 26 29 30 31 32 33 34 35 36 35 34 37 38 39 40</p>
                </triangles>
            </mesh>
        </geometry>
        <geometry id="ID27">
            <mesh>
                <source id="ID28">
                    <float_array id="ID31" count="156">38.97638 11.02362 140.7913 39.37008 2.273737e-13 47.09049 39.37008 2.273737e-13 140.7913 39.37008 2.273737e-13 46.30309 38.97638 11.02362 46.30309 38.97638 11.02362 46.69679 39.37008 2.273737e-13 47.09049 59.05512 0 46.30309 39.37008 2.273737e-13 46.30309 59.05512 0 47.09049 38.58268 2.273737e-13 47.09049 39.37008 2.273737e-13 46.30309 38.58268 2.273737e-13 46.30309 39.37008 2.273737e-13 47.09049 39.37008 2.273737e-13 140.7913 38.58268 2.273737e-13 140.7913 39.37008 2.273737e-13 140.7913 38.97638 11.02362 140.7913 38.58268 2.273737e-13 140.7913 38.97638 11.02362 46.30309 38.58268 2.273737e-13 47.09049 38.58268 2.273737e-13 46.30309 38.58268 2.273737e-13 140.7913 38.97638 11.02362 140.7913 38.97638 11.02362 46.69679 39.37008 2.273737e-13 46.30309 38.97638 11.02362 46.30309 38.58268 2.273737e-13 46.30309 19.68504 0 46.30309 38.97638 11.02362 46.69679 19.68504 11.02362 46.69679 38.58268 2.273737e-13 46.30309 39.37008 2.273737e-13 46.30309 59.05512 11.02362 46.69679 59.05512 0 46.30309 38.97638 11.02362 46.69679 19.68504 0 47.09049 19.68504 11.02362 46.69679 38.58268 2.273737e-13 47.09049 39.37008 2.273737e-13 47.09049 59.05512 11.02362 46.69679 59.05512 0 47.09049 59.05512 11.02362 46.69679 59.05512 0 46.30309 59.05512 0 47.09049 19.68504 0 47.09049 38.58268 2.273737e-13 46.30309 19.68504 0 46.30309 38.58268 2.273737e-13 47.09049 19.68504 11.02362 46.69679 19.68504 0 46.30309 19.68504 0 47.09049</float_array>
                    <technique_common>
                        <accessor count="52" source="#ID31" stride="3">
                            <param name="X" type="float" />
                            <param name="Y" type="float" />
                            <param name="Z" type="float" />
                        </accessor>
                    </technique_common>
                </source>
                <source id="ID29">
                    <float_array id="ID32" count="156">-0.9993629 -0.03569153 -4.053607e-18 -0.9993629 -0.03569153 -4.053607e-18 -0.9993629 -0.03569153 -4.053607e-18 -0.9993629 -0.03569153 -4.053607e-18 -0.9993629 -0.03569153 -4.053607e-18 -0.9993629 -0.03569153 -4.053607e-18 1.155058e-14 1 -1.609069e-29 1.155058e-14 1 -1.609069e-29 1.155058e-14 1 -1.609069e-29 1.155058e-14 1 -1.609069e-29 0 1 0 0 1 0 0 1 0 0 1 0 0 1 0 0 1 0 0 0 1 0 0 1 0 0 1 0.9993629 -0.03569153 6.627039e-19 0.9993629 -0.03569153 6.627039e-19 0.9993629 -0.03569153 6.627039e-19 0.9993629 -0.03569153 6.627039e-19 0.9993629 -0.03569153 6.627039e-19 0.9993629 -0.03569153 6.627039e-19 0 0 1 0 0 1 0 0 1 -8.65572e-15 -0.03569153 0.9993629 -8.65572e-15 -0.03569153 0.9993629 -8.65572e-15 -0.03569153 0.9993629 -8.65572e-15 -0.03569153 0.9993629 -8.65572e-15 -0.03569153 0.9993629 -8.65572e-15 -0.03569153 0.9993629 -8.65572e-15 -0.03569153 0.9993629 1.006567e-14 -0.03569153 -0.9993629 1.006567e-14 -0.03569153 -0.9993629 1.006567e-14 -0.03569153 -0.9993629 1.006567e-14 -0.03569153 -0.9993629 1.006567e-14 -0.03569153 -0.9993629 1.006567e-14 -0.03569153 -0.9993629 1.006567e-14 -0.03569153 -0.9993629 -1 0 0 -1 0 0 -1 0 0 -1.203186e-14 1 -6.934905e-27 -1.203186e-14 1 -6.934905e-27 -1.203186e-14 1 -6.934905e-27 -1.203186e-14 1 -6.934905e-27 -1 -4.125208e-14 -1.155058e-12 -1 -4.125208e-14 -1.155058e-12 -1 -4.125208e-14 -1.155058e-12</float_array>
                    <technique_common>
                        <accessor count="52" source="#ID32" stride="3">
                            <param name="X" type="float" />
                            <param name="Y" type="float" />
                            <param name="Z" type="float" />
                        </accessor>
                    </technique_common>
                </source>
                <vertices id="ID30">
                    <input semantic="POSITION" source="#ID28" />
                    <input semantic="NORMAL" source="#ID29" />
                </vertices>
                <triangles count="30" material="Material2">
                    <input offset="0" semantic="VERTEX" source="#ID30" />
                    <p>0 1 2 1 0 3 3 0 4 4 0 5 6 7 8 7 6 9 10 11 12 11 10 13 10 14 13 14 10 15 16 17 18 19 20 21 20 19 22 22 19 23 23 19 24 25 26 27 28 29 30 29 28 31 29 31 32 29 32 33 33 32 34 35 36 37 36 35 38 38 35 39 39 35 40 39 40 41 42 43 44 45 46 47 46 45 48 49 50 51</p>
                </triangles>
            </mesh>
        </geometry>
    </library_geometries>
    <library_materials>
        <material id="ID8" name="material">
            <instance_effect url="#ID7" />
        </material>
    </library_materials>
    <library_effects>
        <effect id="ID7">
            <profile_COMMON>
                <technique sid="COMMON">
                    <lambert>
                        <diffuse>
                            <color>1 1 1 1</color>
                        </diffuse>
                    </lambert>
                </technique>
            </profile_COMMON>
        </effect>
    </library_effects>
    <scene>
        <instance_visual_scene url="#ID2" />
    </scene>
</COLLADA>
