# Alias OBJ Model File
# Exported from SketchUp, (c) 2000-2012 Trimble Navigation Limited
# File units = meters

mtllib foils.mtl

g Mesh1 Group1 foils1 Model

usemtl FrontColor
v 3.44127 0.77 0.817774
vt 38.9764 255.229
vn 0 1 -0
v 3.43127 0.77 1.28777
vt 38.5827 236.725
v 3.45127 0.77 1.28777
vt 39.3701 236.725
f 1/1/1 2/2/1 3/3/1

v 3.43127 -3.23 1.28777
vt 237.492 0.787223
vn 0.999774 0 0.0212718
v 3.44127 -3.23 0.817774
vt 256 0.787223
vt 256 158.268
vt 237.492 158.268
f 4/4/2 5/5/2 1/6/2 2/7/2 

vt -38.5827 236.725
vn 0 -1 -0
vt -38.9764 255.229
v 3.45127 -3.23 1.28777
vt -39.3701 236.725
f 4/8/3 5/9/3 6/10/3

vn -1.44331e-15 -1 -2.23085e-15
v 2.45127 -3.23 1.28777
vt -4.53611e-13 236.725
v 2.45127 -3.23 0.817668
vt -1.12551e-13 255.233
v 4.45127 -3.23 0.817668
vt -78.7402 255.233
v 4.45127 -3.23 1.28777
vt -78.7402 236.725
f 4/8/4 7/11/4 8/12/4 9/13/4 10/14/4 6/10/4 5/9/4 

v 2.45127 -3.25 1.28735
vt 0 -5.03591
vn 0 0.0212718 -0.999774
vt -4.54747e-13 -4.24851
vt -38.5827 -4.24851
vt -39.3701 -4.24851
vt -78.7402 -4.24851
v 4.45127 -3.25 1.28735
vt -78.7402 -5.03591
f 11/15/5 7/16/5 4/17/5 6/18/5 10/19/5 12/20/5 

vt 255.233 0.787223
vn 1 -5.77268e-13 -1.84276e-14
vt 236.725 0.787223
vt 236.741 3.41061e-13
f 8/21/6 7/22/6 11/23/6

vt 2.00859e-11 236.527
vn 3.60873e-15 0.999095 0.0425339
vt 78.7402 236.527
vt 78.7402 255.035
vt 2.17685e-11 255.035
f 11/24/7 12/25/7 9/26/7 8/27/7 

vn 1 5.22769e-16 -2.45701e-14
vt 236.741 -4.11629e-14
f 9/21/8 10/22/8 12/28/8

vt -38.5827 0.787223
vn 0 0 -1
vt -38.5827 158.268
vt -39.3701 158.268
vt -39.3701 0.787223
f 4/29/9 2/30/9 3/31/9 6/32/9 

vt -235.834 158.268
vn -0.999774 -1.43222e-19 0.0212718
vt -254.342 158.268
vt -254.342 0.787223
vt -235.834 0.787223
f 3/33/10 1/34/10 5/35/10 6/36/10 

g Mesh2 Group1 foils1 Model

v 3.45127 -2.0739 7.30058
vt 1.40518 46.3031
vn -0.999363 -4.05361e-18 0.0356915
v 3.45127 -2.0539 7.30058
vt 1.40518 47.0905
v 3.45127 0.326103 7.30058
vt 1.40518 140.791
v 3.44127 0.326103 7.02058
vt -9.62547 140.791
v 3.44127 -2.0639 7.02058
vt -9.62547 46.6968
v 3.44127 -2.0739 7.02058
vt -9.62547 46.3031
f 13/37/11 14/38/11 15/39/11 16/40/11 17/41/11 18/42/11 

v 3.95127 -2.0739 7.30058
vt -59.0551 46.3031
vn 1.15506e-14 -1.60907e-29 -1
vt -39.3701 46.3031
vt -39.3701 47.0905
v 3.95127 -2.0539 7.30058
vt -59.0551 47.0905
f 19/43/12 13/44/12 14/45/12 20/46/12 

v 2.95127 -2.0739 7.30058
vt 19.685 1.65263
vn -8.65572e-15 0.999363 0.0356915
v 3.43127 -2.0739 7.30058
vt 38.5827 1.65263
vt 39.3701 1.65263
vt 59.0551 1.65263
v 3.95127 -2.0639 7.02058
vt 59.0551 12.6833
vt 38.9764 12.6833
v 2.95127 -2.0639 7.02058
vt 19.685 12.6833
f 21/47/13 22/48/13 13/49/13 19/50/13 23/51/13 17/52/13 24/53/13 

v 2.95127 -2.0539 7.30058
vt -19.685 47.0905
vn -1.20319e-14 -6.9349e-27 -1
v 3.43127 -2.0539 7.30058
vt -38.5827 47.0905
vt -38.5827 46.3031
vt -19.685 46.3031
f 25/54/14 26/55/14 22/56/14 21/57/14 

vt 59.0551 1.68073
vn 1.00657e-14 -0.999363 0.0356915
vt 39.3701 1.68073
vt 38.5827 1.68073
vt 19.685 1.68073
vt 19.685 -9.34992
vt 38.9764 -9.34992
vt 59.0551 -9.34992
f 20/58/15 14/59/15 26/60/15 25/61/15 24/62/15 17/63/15 23/64/15 

vt -39.3701 140.791
v 3.43127 0.326103 7.30058
vt -38.5827 140.791
f 15/65/9 14/45/9 26/55/9 27/66/9 

f 22/56/9 26/55/9 14/45/9 13/44/9 

vt 1.37707 140.791
vn 0.999363 6.62704e-19 0.0356915
vt 1.37707 47.0905
vt 1.37707 46.3031
vt 12.4077 46.3031
vt 12.4077 46.6968
vt 12.4077 140.791
f 27/67/16 26/68/16 22/69/16 18/70/16 17/71/16 16/72/16 

vt 39.3701 2.27374e-13
vt 38.9764 11.0236
vt 38.5827 2.27374e-13
f 13/73/1 18/74/1 22/75/1

f 16/74/1 27/75/1 15/73/1

vt -11.0236 46.6968
vn -1 -1.15506e-12 4.12521e-14
vt 8.12049e-13 46.3031
vt 8.12049e-13 47.0905
f 24/76/17 21/77/17 25/78/17

vt 0 47.0905
vn -1 0 -0
vt 0 46.3031
f 20/79/18 23/76/18 19/80/18

g Mesh3 Group2 foils1 Model

v -3.43 0.769995 0.8184
v -3.44 0.769995 1.2884
v -3.42 0.769995 1.2884
f 28/1/1 29/2/1 30/3/1

v -3.44 -3.23 1.2884
v -3.43 -3.23 0.8184
f 31/4/2 32/5/2 28/6/2 29/7/2 

v -3.42 -3.23 1.2884
f 31/8/3 32/9/3 33/10/3

v -4.42 -3.23 1.2884
v -4.42 -3.23 0.818293
v -2.42 -3.23 0.818293
v -2.42 -3.23 1.2884
f 31/8/4 34/11/4 35/12/4 36/13/4 37/14/4 33/10/4 32/9/4 

v -4.42 -3.25 1.28797
v -2.42 -3.25 1.28797
f 38/15/5 34/16/5 31/17/5 33/18/5 37/19/5 39/20/5 

f 35/21/6 34/22/6 38/23/6

f 38/24/7 39/25/7 36/26/7 35/27/7 

f 36/21/8 37/22/8 39/28/8

f 31/29/9 29/30/9 30/31/9 33/32/9 

f 30/33/10 28/34/10 32/35/10 33/36/10 

g Mesh4 Group2 foils1 Model

v -3.42 -2.0739 7.3012
v -3.42 -2.0539 7.3012
v -3.42 0.326098 7.3012
v -3.43 0.326098 7.0212
v -3.43 -2.0639 7.0212
v -3.43 -2.0739 7.0212
f 40/37/11 41/38/11 42/39/11 43/40/11 44/41/11 45/42/11 

v -2.92 -2.0739 7.3012
v -2.92 -2.0539 7.3012
f 46/43/12 40/44/12 41/45/12 47/46/12 

v -3.92 -2.0739 7.3012
v -3.44 -2.0739 7.3012
v -2.92 -2.0639 7.0212
v -3.92 -2.0639 7.0212
f 48/47/13 49/48/13 40/49/13 46/50/13 50/51/13 44/52/13 51/53/13 

v -3.92 -2.0539 7.3012
v -3.44 -2.0539 7.3012
f 52/54/14 53/55/14 49/56/14 48/57/14 

f 47/58/15 41/59/15 53/60/15 52/61/15 51/62/15 44/63/15 50/64/15 

v -3.44 0.326098 7.3012
f 42/65/9 41/45/9 53/55/9 54/66/9 

f 49/56/9 53/55/9 41/45/9 40/44/9 

f 54/67/16 53/68/16 49/69/16 45/70/16 44/71/16 43/72/16 

f 40/73/1 45/74/1 49/75/1

f 43/74/1 54/75/1 42/73/1

f 51/76/17 48/77/17 52/78/17

f 47/79/18 50/76/18 46/80/18

