# Alias OBJ Model File
# Exported from SketchUp, (c) 2000-2012 Trimble Navigation Limited
# File units = meters

mtllib jib.mtl

g Mesh1 Jib1 Model

usemtl FrontColor
v -0.00846252 1.28396 -0.0631669
vt 54.4642 -1.61474e-29
vn 1 1.74711e-16 -1.23282e-16
v -0.00846252 1.28396 -5.02759
vt 249.914 4.26326e-14
v -0.00846252 10.9293 -1.34098
vt 104.772 379.738
v -0.00846252 10.9192 -1.31992
vt 103.943 379.34
v -0.00846252 10.6998 -1.08697
vt 94.7713 370.703
v -0.00846252 10.0639 -0.728416
vt 80.6552 345.668
v -0.00846252 9.64112 -0.547227
vt 73.5217 329.022
f 1/1/1 2/2/1 3/3/1 4/4/1 5/5/1 6/6/1 7/7/1 

