<?xml version="1.0" encoding="UTF-8" standalone="no" ?>
<COLLADA xmlns="http://www.collada.org/2005/11/COLLADASchema" version="1.4.1">
    <asset>
        <contributor>
            <authoring_tool>SketchUp 24.0.594</authoring_tool>
        </contributor>
        <created>2026-09-17T00:07:26Z</created>
        <modified>2026-09-17T00:07:26Z</modified>
        <unit meter="0.0254" name="inch" />
        <up_axis>Z_UP</up_axis>
    </asset>
    <library_cameras>
        <camera id="ID1" name="skp_camera_Last_Saved_SketchUp_View">
            <optics>
                <technique_common>
                    <perspective>
                        <yfov>35</yfov>
                        <aspect_ratio>0</aspect_ratio>
                        <znear>1</znear>
                        <zfar>1000</zfar>
                    </perspective>
                </technique_common>
            </optics>
        </camera>
    </library_cameras>
    <library_visual_scenes>
        <visual_scene id="ID2">
            <node name="SketchUp">
                <node name="skp_camera_Last_Saved_SketchUp_View">
                    <matrix>0.5682286 -0.1055886 0.8160682 3038.142 0.8228707 0.07291359 -0.5635312 -2182.456 0 0.9917331 0.1283174 679.8918 0 0 0 1</matrix>
                    <instance_camera url="#ID1" />
                </node>
                <node id="ID3" name="instance_0">
                    <matrix>1 0 0 -19.69223 0 1 0 -148.0664 0 0 1 42.12244 0 0 0 1</matrix>
                    <instance_node url="#ID4" />
                </node>
            </node>
        </visual_scene>
    </library_visual_scenes>
    <library_nodes>
        <node id="ID4" name="ala">
            <instance_geometry url="#ID5">
                <bind_material>
                    <technique_common>
                        <instance_material symbol="Material2" target="#ID7">
                            <bind_vertex_input semantic="UVSET0" input_semantic="TEXCOORD" input_set="0" />
                        </instance_material>
                    </technique_common>
                </bind_material>
            </instance_geometry>
            <instance_geometry url="#ID13">
                <bind_material>
                    <technique_common>
                        <instance_material symbol="Material2" target="#ID14">
                            <bind_vertex_input semantic="UVSET0" input_semantic="TEXCOORD" input_set="0" />
                        </instance_material>
                    </technique_common>
                </bind_material>
            </instance_geometry>
            <instance_geometry url="#ID19">
                <bind_material>
                    <technique_common>
                        <instance_material symbol="Material2" target="#ID14">
                            <bind_vertex_input semantic="UVSET0" input_semantic="TEXCOORD" input_set="0" />
                        </instance_material>
                    </technique_common>
                </bind_material>
            </instance_geometry>
        </node>
    </library_nodes>
    <library_geometries>
        <geometry id="ID5">
            <mesh>
                <source id="ID8">
                    <float_array id="ID11" count="603">0.2947594 60.05326 908.5205 19.1924 9.096928 836.3063 19.1924 12.12924 908.9793 0.2947594 60.05326 908.5205 0.9386808 60.83045 836.3063 19.1924 9.096928 836.3063 0 63.4908 836.3063 0.2947594 60.05326 908.5205 19.1924 9.096928 836.3063 37.44611 55.17727 908.1367 37.44611 55.17727 908.1367 19.1924 12.12924 908.9793 19.1924 9.096928 836.3063 37.44611 55.17727 908.1367 0.2947594 60.05326 908.5205 19.1924 12.12924 908.9793 0.2947594 71.47418 763.4039 0 63.4908 836.3063 0.2947594 60.05326 908.5205 19.1924 9.096928 836.3063 0 63.4908 836.3063 19.1924 6.064619 763.6333 0.9386808 60.83045 836.3063 0.9386808 55.17727 908.1367 37.44611 55.17727 908.1367 0.2947594 60.05326 908.5205 2.826563 50.63357 907.7791 5.829749 46.73181 907.472 9.743578 43.73788 907.2364 14.30133 41.85582 907.0883 19.1924 41.21388 907.0378 24.08347 41.85582 907.0883 28.64122 43.73788 907.2364 32.55505 46.73181 907.472 35.55823 50.63357 907.7791 37.44611 55.17727 908.1367 0.9386808 64.92925 908.9042 0.2947594 60.05326 908.5205 2.826563 69.47295 909.2618 5.829749 73.37472 909.5689 9.743578 76.36865 909.8045 14.30133 78.25071 909.9526 19.1924 78.89264 910.0032 24.08347 78.25071 909.9526 28.64122 76.36865 909.8045 32.55505 73.37472 909.5689 35.55823 69.47295 909.2618 37.44611 64.92925 908.9042 38.09004 60.05326 908.5205 37.44611 60.88018 835.6744 37.44611 55.17727 908.1367 19.1924 9.096928 836.3063 0.9386808 64.92925 908.9042 0.2947594 71.47418 763.4039 0.2947594 60.05326 908.5205 0.9386808 136.3147 1.86644 0.2947594 82.89511 618.2873 0.2947594 94.75696 467.5682 0.2947594 107.7014 303.0934 0.2947594 128.9519 33.08087 0.2947594 131.4387 1.482692 0.2947594 60.05326 908.5205 0.9386808 60.83045 836.3063 0.9386808 55.17727 908.1367 0.2947594 71.47418 763.4039 0.9386808 126.5627 1.098943 0.2947594 82.89511 618.2873 0.2947594 94.75696 467.5682 0.2947594 107.7014 303.0934 0.2947594 128.9519 33.08087 0.2947594 131.4387 1.482692 0.2947594 71.47418 763.4039 19.1924 6.064619 763.6333 0 63.4908 836.3063 37.44611 60.88018 835.6744 19.1924 9.096928 836.3063 19.1924 6.064619 763.6333 35.55823 122.019 0.7413458 37.44611 55.17727 908.1367 35.55823 50.63357 907.7791 37.44611 60.88018 835.6744 37.44611 66.58309 763.212 37.44611 77.98891 618.2873 37.44611 89.85077 467.5682 37.44611 101.7126 316.8491 37.44611 124.0457 33.08087 37.44611 126.5627 1.098943 2.826563 122.019 0.7413458 2.826563 50.63357 907.7791 5.829749 118.1172 0.4342703 5.829749 46.73181 907.472 9.743578 43.73788 907.2364 9.743578 115.1233 0.198643 14.30133 41.85582 907.0883 14.30133 113.2412 0.05052149 19.1924 109.512 39.22786 19.1924 112.5993 0 19.1924 41.21388 907.0378 24.08347 113.2412 0.05052149 24.08347 41.85582 907.0883 28.64122 115.1233 0.198643 28.64122 43.73788 907.2364 32.55505 118.1172 0.4342703 32.55505 46.73181 907.472 37.44611 60.88018 835.6744 38.09004 60.05326 908.5205 37.44611 55.17727 908.1367 38.09004 131.4387 1.482692 37.44611 66.58309 763.212 37.44611 77.98891 618.2873 37.44611 89.85077 467.5682 37.44611 101.7126 316.8491 37.44611 64.92925 908.9042 37.44611 136.3147 1.86644 35.55823 69.47295 909.2618 35.55823 140.8584 2.224037 32.55505 73.37472 909.5689 32.55505 144.7601 2.531113 28.64122 147.7541 2.76674 28.64122 76.36865 909.8045 24.08347 149.6361 2.914862 24.08347 78.25071 909.9526 19.1924 150.2781 2.965383 19.1924 78.89264 910.0032 14.30133 78.25071 909.9526 14.30133 149.6361 2.914862 9.743578 76.36865 909.8045 9.743578 147.7541 2.76674 5.829749 73.37472 909.5689 5.829749 144.7601 2.531113 2.826563 140.8584 2.224037 2.826563 69.47295 909.2618 0.9386808 136.3147 1.86644 0.9386808 126.5627 1.098943 0.2947594 131.4387 1.482692 2.826563 140.8584 2.224037 2.826563 122.019 0.7413458 5.829749 144.7601 2.531113 5.829749 118.1172 0.4342703 9.743578 147.7541 2.76674 9.743578 115.1233 0.198643 14.30133 149.6361 2.914862 14.30133 113.2412 0.05052149 19.1924 150.2781 2.965383 19.1924 112.5993 0 24.08347 149.6361 2.914862 24.08347 113.2412 0.05052149 28.64122 147.7541 2.76674 28.64122 115.1233 0.198643 32.55505 144.7601 2.531113 32.55505 118.1172 0.4342703 35.55823 140.8584 2.224037 35.55823 122.019 0.7413458 37.44611 136.3147 1.86644 37.44611 126.5627 1.098943 38.09004 131.4387 1.482692 0.2947594 94.75696 467.5682 19.1924 31.40706 33.08087 19.1924 9.074018 316.8491 0.2947594 107.7014 303.0934 0.2947594 128.9519 33.08087 0.2947594 94.75696 467.5682 19.1924 4.537009 467.5682 0.2947594 82.89511 618.2873 0.2947594 82.89511 618.2873 19.1924 0 618.2873 0.2947594 71.47418 763.4039 0.2947594 71.47418 763.4039 19.1924 0 618.2873 19.1924 6.064619 763.6333 37.44611 66.58309 763.212 37.44611 60.88018 835.6744 19.1924 6.064619 763.6333 19.1924 31.40706 33.08087 37.44611 101.7126 316.8491 19.1924 9.074018 316.8491 37.44611 124.0457 33.08087 37.44611 101.7126 316.8491 37.44611 89.85077 467.5682 19.1924 9.074018 316.8491 37.44611 89.85077 467.5682 37.44611 77.98891 618.2873 19.1924 4.537009 467.5682 37.44611 77.98891 618.2873 37.44611 66.58309 763.212 19.1924 0 618.2873 0.2947594 94.75696 467.5682 19.1924 9.074018 316.8491 19.1924 4.537009 467.5682 0.2947594 82.89511 618.2873 19.1924 4.537009 467.5682 19.1924 0 618.2873 37.44611 66.58309 763.212 19.1924 6.064619 763.6333 19.1924 0 618.2873 37.44611 89.85077 467.5682 19.1924 4.537009 467.5682 19.1924 9.074018 316.8491 37.44611 77.98891 618.2873 19.1924 0 618.2873 19.1924 4.537009 467.5682</float_array>
                    <technique_common>
                        <accessor count="201" source="#ID11" stride="3">
                            <param name="X" type="float" />
                            <param name="Y" type="float" />
                            <param name="Z" type="float" />
                        </accessor>
                    </technique_common>
                </source>
                <source id="ID9">
                    <float_array id="ID12" count="603">-0.9302271 -0.3666653 0.01529926 -0.9302271 -0.3666653 0.01529926 -0.9302271 -0.3666653 0.01529926 -0.9429522 -0.3327123 -0.01198887 -0.9429522 -0.3327123 -0.01198887 -0.9429522 -0.3327123 -0.01198887 -0.9429522 -0.3327123 -0.01198887 -0.1025678 -0.8252031 0.5554454 -0.1025678 -0.8252031 0.5554454 -0.1025678 -0.8252031 0.5554454 0.9206441 -0.3900634 0.01627555 0.9206441 -0.3900634 0.01627555 0.9206441 -0.3900634 0.01627555 0.01221599 0.01438893 0.9998218 0.01221599 0.01438893 0.9998218 0.01221599 0.01438893 0.9998218 -0.9914449 0.1301238 0.01024097 -0.9914449 0.1301238 0.01024097 -0.9914449 0.1301238 0.01024097 -0.9429291 -0.3327042 0.01388222 -0.9429291 -0.3327042 0.01388222 -0.9429291 -0.3327042 0.01388222 -0.9429291 -0.3327042 0.01388222 9.784427e-15 -0.0784591 0.9969173 9.784427e-15 -0.0784591 0.9969173 9.784427e-15 -0.0784591 0.9969173 9.784427e-15 -0.0784591 0.9969173 9.784427e-15 -0.0784591 0.9969173 9.784427e-15 -0.0784591 0.9969173 9.784427e-15 -0.0784591 0.9969173 9.784427e-15 -0.0784591 0.9969173 9.784427e-15 -0.0784591 0.9969173 9.784427e-15 -0.0784591 0.9969173 9.784427e-15 -0.0784591 0.9969173 9.784427e-15 -0.0784591 0.9969173 1.240211e-14 -0.0784591 0.9969173 1.240211e-14 -0.0784591 0.9969173 1.240211e-14 -0.0784591 0.9969173 1.240211e-14 -0.0784591 0.9969173 1.240211e-14 -0.0784591 0.9969173 1.240211e-14 -0.0784591 0.9969173 1.240211e-14 -0.0784591 0.9969173 1.240211e-14 -0.0784591 0.9969173 1.240211e-14 -0.0784591 0.9969173 1.240211e-14 -0.0784591 0.9969173 1.240211e-14 -0.0784591 0.9969173 1.240211e-14 -0.0784591 0.9969173 1.240211e-14 -0.0784591 0.9969173 1.240211e-14 -0.0784591 0.9969173 0.9426968 -0.3326222 -0.02617794 0.9426968 -0.3326222 -0.02617794 0.9426968 -0.3326222 -0.02617794 -0.9659258 0.2580212 0.02030671 -0.9914449 0.1301238 0.01024097 -0.9914449 0.1301238 0.01024097 -0.9659258 0.2580212 0.02030671 -0.9914449 0.1301238 0.01024097 -0.9914449 0.1301238 0.01024097 -0.9914449 0.1301238 0.01024097 -0.9914449 0.1301238 0.01024097 -0.9914449 0.1301238 0.01024097 -0.9914449 -0.1301238 -0.01024097 -0.9659258 -0.2580212 -0.02030671 -0.9659258 -0.2580212 -0.02030671 -0.9914449 -0.1301238 -0.01024097 -0.9659258 -0.2580212 -0.02030671 -0.9914449 -0.1301238 -0.01024097 -0.9914449 -0.1301238 -0.01024097 -0.9914449 -0.1301238 -0.01024097 -0.9914449 -0.1301238 -0.01024097 -0.9914449 -0.1301238 -0.01024097 -0.9601117 -0.2775084 -0.03427129 -0.9601117 -0.2775084 -0.03427129 -0.9601117 -0.2775084 -0.03427129 0.9430826 -0.3322696 0.01386408 0.9430826 -0.3322696 0.01386408 0.9430826 -0.3322696 0.01386408 0.8660254 -0.4984587 -0.03922955 0.9238795 -0.3815037 -0.030025 0.8660254 -0.4984587 -0.03922955 0.9238795 -0.3815037 -0.030025 0.9238795 -0.3815037 -0.030025 0.9238795 -0.3815037 -0.030025 0.9238795 -0.3815037 -0.030025 0.9238795 -0.3815037 -0.030025 0.9659258 -0.2580212 -0.02030671 0.9659258 -0.2580212 -0.02030671 -0.8660254 -0.4984587 -0.03922955 -0.8660254 -0.4984587 -0.03922955 -0.7071068 -0.704927 -0.05547896 -0.7071068 -0.704927 -0.05547896 -0.5 -0.8633557 -0.06794757 -0.5 -0.8633557 -0.06794757 -0.258819 -0.9629482 -0.07578567 -0.258819 -0.9629482 -0.07578567 5.640733e-15 -0.9969173 -0.0784591 1.301022e-15 -0.9969173 -0.0784591 1.003391e-14 -0.9969173 -0.0784591 0.258819 -0.9629482 -0.07578567 0.258819 -0.9629482 -0.07578567 0.5 -0.8633557 -0.06794757 0.5 -0.8633557 -0.06794757 0.7071068 -0.704927 -0.05547896 0.7071068 -0.704927 -0.05547896 0.9914449 -0.1301238 -0.01024097 1 3.243644e-15 -6.333571e-15 0.9914449 -0.1301238 -0.01024097 1 7.806132e-15 -5.974899e-15 0.9914449 -0.1301238 -0.01024097 0.9914449 -0.1301238 -0.01024097 0.9914449 -0.1301238 -0.01024097 0.9914449 -0.1301238 -0.01024097 0.9659258 0.2580212 0.02030671 0.9659258 0.2580212 0.02030671 0.8660254 0.4984587 0.03922955 0.8660254 0.4984587 0.03922955 0.7071068 0.704927 0.05547896 0.7071068 0.704927 0.05547896 0.5 0.8633557 0.06794757 0.5 0.8633557 0.06794757 0.258819 0.9629482 0.07578567 0.258819 0.9629482 0.07578567 3.653555e-16 0.9969173 0.0784591 9.214088e-15 0.9969173 0.0784591 -0.258819 0.9629482 0.07578567 -0.258819 0.9629482 0.07578567 -0.5 0.8633557 0.06794757 -0.5 0.8633557 0.06794757 -0.7071068 0.704927 0.05547896 -0.7071068 0.704927 0.05547896 -0.8660254 0.4984587 0.03922955 -0.8660254 0.4984587 0.03922955 -1.014213e-14 0.0784591 -0.9969173 -1.014213e-14 0.0784591 -0.9969173 -1.014213e-14 0.0784591 -0.9969173 -1.014213e-14 0.0784591 -0.9969173 -1.014213e-14 0.0784591 -0.9969173 -1.014213e-14 0.0784591 -0.9969173 -1.014213e-14 0.0784591 -0.9969173 -1.014213e-14 0.0784591 -0.9969173 -1.014213e-14 0.0784591 -0.9969173 -1.014213e-14 0.0784591 -0.9969173 -1.014213e-14 0.0784591 -0.9969173 -1.014213e-14 0.0784591 -0.9969173 -1.014213e-14 0.0784591 -0.9969173 -1.014213e-14 0.0784591 -0.9969173 -1.014213e-14 0.0784591 -0.9969173 -1.014213e-14 0.0784591 -0.9969173 -1.014213e-14 0.0784591 -0.9969173 -1.014213e-14 0.0784591 -0.9969173 -1.014213e-14 0.0784591 -0.9969173 -1.014213e-14 0.0784591 -0.9969173 -1.014213e-14 0.0784591 -0.9969173 -1.014213e-14 0.0784591 -0.9969173 -1.014213e-14 0.0784591 -0.9969173 -1.014213e-14 0.0784591 -0.9969173 -0.9816361 -0.1901752 -0.01496711 -0.9816361 -0.1901752 -0.01496711 -0.9816361 -0.1901752 -0.01496711 -0.9816361 -0.1901752 -0.01496711 -0.9816361 -0.1901752 -0.01496711 -0.9786319 -0.2049861 -0.01613275 -0.9786319 -0.2049861 -0.01613275 -0.9786319 -0.2049861 -0.01613275 -0.9748365 -0.222234 -0.01749019 -0.9748365 -0.222234 -0.01749019 -0.9748365 -0.222234 -0.01749019 -0.9606546 -0.2775045 0.01157898 -0.9606546 -0.2775045 0.01157898 -0.9606546 -0.2775045 0.01157898 0.9571066 -0.2888429 -0.02273243 0.9571066 -0.2888429 -0.02273243 0.9571066 -0.2888429 -0.02273243 0.9810212 -0.1933026 -0.01521325 0.9810212 -0.1933026 -0.01521325 0.9810212 -0.1933026 -0.01521325 0.9810212 -0.1933026 -0.01521325 0.9810212 -0.1933026 -0.01521325 0.9810212 -0.1933026 -0.01521325 0.9810212 -0.1933026 -0.01521325 0.9777351 -0.209196 -0.01646408 0.9777351 -0.209196 -0.01646408 0.9777351 -0.209196 -0.01646408 0.9735289 -0.2278596 -0.01793294 0.9735289 -0.2278596 -0.01793294 0.9735289 -0.2278596 -0.01793294 -0.9787407 -0.2050088 -0.00617126 -0.9787407 -0.2050088 -0.00617126 -0.9787407 -0.2050088 -0.00617126 -0.9749638 -0.222263 -0.006690651 -0.9749638 -0.222263 -0.006690651 -0.9749638 -0.222263 -0.006690651 0.9573515 -0.2886746 0.01204506 0.9573515 -0.2886746 0.01204506 0.9573515 -0.2886746 0.01204506 0.9778483 -0.2092202 -0.006298034 0.9778483 -0.2092202 -0.006298034 0.9778483 -0.2092202 -0.006298034 0.9736625 -0.2278908 -0.006860064 0.9736625 -0.2278908 -0.006860064 0.9736625 -0.2278908 -0.006860064</float_array>
                    <technique_common>
                        <accessor count="201" source="#ID12" stride="3">
                            <param name="X" type="float" />
                            <param name="Y" type="float" />
                            <param name="Z" type="float" />
                        </accessor>
                    </technique_common>
                </source>
                <vertices id="ID10">
                    <input semantic="POSITION" source="#ID8" />
                    <input semantic="NORMAL" source="#ID9" />
                </vertices>
                <triangles count="147" material="Material2">
                    <input offset="0" semantic="VERTEX" source="#ID10" />
                    <p>0 1 2 3 4 5 4 3 6 7 8 9 10 11 12 13 14 15 16 17 18 19 20 21 20 19 22 23 24 25 24 23 26 24 26 27 24 27 28 24 28 29 24 29 30 24 30 31 24 31 32 24 32 33 24 33 34 35 36 37 36 35 38 38 35 39 39 35 40 40 35 41 41 35 42 42 35 43 43 35 44 44 35 45 45 35 46 46 35 47 47 35 48 49 50 51 52 53 54 53 52 55 53 55 56 56 55 57 57 55 58 58 55 59 59 55 60 61 62 63 62 61 64 62 64 65 65 64 66 65 66 67 65 67 68 65 68 69 65 69 70 71 72 73 74 75 76 77 78 79 78 77 80 80 77 81 81 77 82 82 77 83 83 77 84 84 77 85 85 77 86 63 87 88 87 63 62 87 62 65 88 89 90 89 88 87 91 89 92 89 91 90 93 92 94 92 93 91 95 94 96 94 95 93 93 95 97 98 95 96 95 98 99 95 99 97 100 99 98 99 100 101 102 101 100 101 102 103 102 79 103 79 102 77 104 105 106 105 104 107 107 104 108 107 108 109 107 109 110 107 110 111 107 111 85 107 85 86 107 112 105 112 107 113 113 114 112 114 113 115 115 116 114 116 115 117 118 116 117 116 118 119 120 119 118 119 120 121 122 121 120 121 122 123 124 122 125 122 124 123 126 125 127 125 126 124 128 127 129 127 128 126 128 130 131 130 128 129 131 55 52 55 131 130 132 133 134 133 132 135 133 135 136 136 135 137 136 137 138 138 137 139 138 139 140 140 139 141 140 141 142 142 141 143 142 143 144 144 143 145 144 145 146 146 145 147 146 147 148 148 147 149 148 149 150 150 149 151 150 151 152 152 151 153 152 153 154 154 153 155 156 157 158 157 156 159 157 159 160 161 162 163 164 165 166 167 168 169 170 171 172 173 174 175 174 173 176 177 178 179 180 181 182 183 184 185 186 187 188 189 190 191 192 193 194 195 196 197 198 199 200</p>
                </triangles>
            </mesh>
        </geometry>
        <geometry id="ID13">
            <mesh>
                <source id="ID16">
                    <float_array id="ID18" count="6">19.1924 31.40706 33.08087 19.1924 109.512 39.22786</float_array>
                    <technique_common>
                        <accessor count="2" source="#ID18" stride="3">
                            <param name="X" type="float" />
                            <param name="Y" type="float" />
                            <param name="Z" type="float" />
                        </accessor>
                    </technique_common>
                </source>
                <vertices id="ID17">
                    <input semantic="POSITION" source="#ID16" />
                </vertices>
                <lines count="1" material="Material2">
                    <input offset="0" semantic="VERTEX" source="#ID17" />
                    <p>1 0</p>
                </lines>
            </mesh>
        </geometry>
        <geometry id="ID19">
            <mesh>
                <source id="ID20">
                    <float_array id="ID22" count="6">0.2947594 107.7014 303.0934 19.15417 8.826487 319.1371</float_array>
                    <technique_common>
                        <accessor count="2" source="#ID22" stride="3">
                            <param name="X" type="float" />
                            <param name="Y" type="float" />
                            <param name="Z" type="float" />
                        </accessor>
                    </technique_common>
                </source>
                <vertices id="ID21">
                    <input semantic="POSITION" source="#ID20" />
                </vertices>
                <lines count="1" material="Material2">
                    <input offset="0" semantic="VERTEX" source="#ID21" />
                    <p>1 0</p>
                </lines>
            </mesh>
        </geometry>
    </library_geometries>
    <library_materials>
        <material id="ID7" name="material">
            <instance_effect url="#ID6" />
        </material>
        <material id="ID14" name="edge_color000255">
            <instance_effect url="#ID15" />
        </material>
    </library_materials>
    <library_effects>
        <effect id="ID6">
            <profile_COMMON>
                <technique sid="COMMON">
                    <lambert>
                        <diffuse>
                            <color>1 1 1 1</color>
                        </diffuse>
                    </lambert>
                </technique>
            </profile_COMMON>
        </effect>
        <effect id="ID15">
            <profile_COMMON>
                <technique sid="COMMON">
                    <constant>
                        <transparent opaque="A_ONE">
                            <color>0 0 0 1</color>
                        </transparent>
                        <transparency>
                            <float>1</float>
                        </transparency>
                    </constant>
                </technique>
            </profile_COMMON>
        </effect>
    </library_effects>
    <scene>
        <instance_visual_scene url="#ID2" />
    </scene>
</COLLADA>
