# Alias OBJ Model File
# Exported from SketchUp, (c) 2000-2012 Trimble Navigation Limited
# File units = meters

mtllib wing.mtl

g Mesh1 ala1 Model

usemtl FrontColor
v -0.492696 24.1463 2.23553
vt -55.7616 908.755
vn -0.930227 0.0152993 0.366665
v -0.0126957 22.3121 3.52982
vt -1.42519 836.533
v -0.0126957 24.158 3.4528
vt -4.24626 909.214
f 1/1/1 2/2/1 3/3/1

vt -56.5333 908.212
vn -0.942952 -0.0119889 0.332712
v -0.500183 22.3121 2.14822
vt -59.8731 835.993
v -0.47634 22.3121 2.21579
vt -57.052 835.993
vt -2.19258 835.993
f 1/4/2 4/5/2 5/6/2 2/7/2 

vt -62.9509 836.178
vn -0.991445 0.010241 -0.130124
vt -59.581 908.396
v -0.492696 20.4604 1.94544
vt -70.9048 763.272
f 4/8/3 1/9/3 6/10/3

v -0.47634 1.11732 0.298494
vt -135.278 1.69421
vn -0.965926 0.0203067 -0.258021
v -0.492696 1.10757 0.422344
vt -130.359 1.31044
v -0.492696 1.91016 0.485509
vt -127.894 32.9103
v -0.492696 8.76848 1.02527
vt -106.824 302.937
v -0.492696 12.9461 1.35406
vt -93.9896 467.42
v -0.492696 16.7744 1.65535
vt -82.2286 618.147
v -0.47634 24.1561 2.11168
vt -64.4993 908.78
f 7/11/4 8/12/3 9/13/3 10/14/3 11/15/3 12/16/3 6/10/3 1/9/3 13/17/4 

v 0.227304 1.14019 0.00793293
vt -28.6412 147.516
vn -1.01421e-14 -0.996917 -0.0784591
v 0.326716 1.1342 0.0839787
vt -32.555 144.512
v 0.402997 1.1264 0.183084
vt -35.5582 140.599
v 0.450949 1.11732 0.298494
vt -37.4461 136.041
v 0.467304 1.10757 0.422344
vt -38.09 131.15
v 0.450949 1.09782 0.546194
vt -37.4461 126.259
v 0.402997 1.08874 0.661604
vt -35.5582 121.701
v 0.326716 1.08094 0.760709
vt -32.555 117.787
v 0.227304 1.07496 0.836754
vt -28.6412 114.784
v 0.111537 1.07119 0.884559
vt -24.0835 112.896
v -0.0126957 1.06991 0.900864
vt -19.1924 112.252
v -0.136929 1.07119 0.884559
vt -14.3013 112.896
v -0.252696 1.07496 0.836754
vt -9.74358 114.784
v -0.352107 1.08094 0.760709
vt -5.82975 117.787
v -0.428388 1.08874 0.661604
vt -2.82656 121.701
v -0.47634 1.09782 0.546194
vt -0.938681 126.259
vt -0.294759 131.15
vt -0.938681 136.041
v -0.428388 1.1264 0.183084
vt -2.82656 140.599
v -0.352107 1.1342 0.0839787
vt -5.82975 144.512
v -0.252696 1.14019 0.00793293
vt -9.74358 147.516
v -0.136929 1.14395 -0.0398715
vt -14.3013 149.404
v -0.0126957 1.14523 -0.0561766
vt -19.1924 150.047
v 0.111537 1.14395 -0.0398715
vt -24.0835 149.404
f 14/18/5 15/19/5 16/20/5 17/21/5 18/22/5 19/23/5 20/24/5 21/25/5 22/26/5 23/27/5 24/28/5 25/29/5 26/30/5 27/31/5 28/32/5 29/33/5 8/34/5 7/35/5 30/36/5 31/37/5 32/38/5 33/39/5 34/40/5 35/41/5 

vt 62.4975 -5.85028
vn 0.707107 0.055479 -0.704927
vt 67.4252 -5.6142
vn 0.5 0.0679476 -0.863356
v 0.227304 24.1789 1.82112
vt 23.884 903.186
v 0.326716 24.173 1.89717
vt 18.9564 902.95
f 15/42/6 14/43/7 36/44/7 37/45/6 

vt 30.2431 -7.92759
vt 35.1742 -7.77908
vn 0.258819 0.0757857 -0.962948
v 0.111537 24.1827 1.77332
vt 7.7841 901.651
vt 2.85306 901.503
f 14/46/7 35/47/8 38/48/8 36/49/7 

vt -4.28537 -8.87893
vt 0.64764 -8.82825
vn 4.82915e-15 0.0784591 -0.996917
v -0.0126957 24.184 1.75701
vt -8.69835 900.966
vt -13.6314 900.916
f 35/50/8 34/51/9 39/52/9 38/53/8 

vt -38.702 -8.43733
vt -33.769 -8.48801
vn -0.258819 0.0757857 -0.962948
v -0.136929 24.1827 1.77332
vt -24.423 901.307
vt -29.3561 901.357
f 34/54/9 33/55/10 40/56/10 39/57/9 

vt -70.621 -6.71149
vt -65.69 -6.86
vn -0.5 0.0679476 -0.863356
v -0.252696 24.1789 1.82112
vt -38.2999 902.57
vt -43.2309 902.719
f 33/58/10 32/59/11 41/60/11 40/61/10 

vt -97.843 -4.15686
vt -92.9154 -4.39295
vn -0.707107 0.055479 -0.704927
v -0.352107 24.173 1.89717
vt -49.3742 904.407
vt -54.3019 904.643
f 32/62/11 31/63/12 42/64/12 41/65/11 

vt -118.519 -1.45151
vt -113.596 -1.75894
vn -0.866025 0.0392295 -0.498459
v -0.428388 24.1652 1.99627
vt -56.8969 906.315
vt -61.8206 906.623
f 31/66/12 30/67/13 43/68/13 42/69/12 

vt -131.274 0.687266
vt -126.353 0.329508
vt -60.3721 907.776
vt -65.2924 908.134
f 30/70/13 7/71/4 13/72/4 43/73/13 

v 0.450949 24.1366 2.35938
vt 37.4461 126.259
vn 1.24021e-14 0.996917 0.0784591
v 0.467304 24.1463 2.23553
vt 38.09 131.15
v 0.450949 24.1561 2.11168
vt 37.4461 136.041
v 0.402997 24.1652 1.99627
vt 35.5582 140.599
vt 32.555 144.512
vt 28.6412 147.516
vt 24.0835 149.404
vt 19.1924 150.047
vt 14.3013 149.404
vt 9.74358 147.516
vt 5.82975 144.512
vt 2.82656 140.599
vt 0.938681 136.041
vt 0.294759 131.15
f 44/74/14 45/75/14 46/76/14 47/77/14 37/78/14 36/79/14 38/80/14 39/81/14 40/82/14 41/83/14 42/84/14 43/85/14 13/86/14 1/87/14 

vt 130.359 1.31044
vn 0.965926 -0.0203067 0.258021
vt 135.278 1.69421
vn 1 -6.61296e-15 3.07946e-16
vt 64.4993 908.78
vt 59.581 908.396
vn 0.991445 -0.010241 0.130124
v 0.450949 22.296 2.21453
vt 65.2354 835.93
v 0.450949 20.4555 2.06968
vt 70.8898 763.463
v 0.450949 16.7744 1.77997
vt 82.1986 618.531
v 0.450949 12.9461 1.47868
vt 93.9596 467.804
v 0.450949 9.11788 1.17739
vt 105.721 317.077
v 0.450949 1.91016 0.610126
vt 127.864 33.294
f 19/88/15 18/89/16 45/90/16 44/91/17 48/92/17 49/93/17 50/94/17 51/95/17 52/96/17 53/97/15 

vt 125.364 0.920688
vt 130.283 1.30446
vn 0.965926 0.0203067 -0.258021
vt 59.5043 908.39
vt 54.5859 908.006
f 18/98/16 17/99/18 46/100/18 45/101/16 

vt 111.703 -0.735746
vt 116.623 -0.377988
vn 0.866025 0.0392295 -0.498459
vt 50.6419 907.069
vt 45.7216 906.711
f 17/102/18 16/103/19 47/104/19 46/105/18 

vt 90.2737 -3.21511
vt 95.1974 -2.90768
vt 38.4989 905.166
vt 33.5752 904.859
f 16/106/19 15/107/6 37/108/6 47/109/19 

vt 126.353 0.329508
vn 0.866025 -0.0392295 0.498459
vt 131.274 0.687266
vt 128.947 32.6836
vt 108.305 316.58
vn 0.92388 -0.030025 0.381504
vt 97.341 467.367
vt 86.3771 618.154
vt 75.8348 763.144
vt 70.5636 835.639
vt 65.2924 908.134
v 0.402997 24.1275 2.47479
vt 60.3721 907.776
f 20/110/20 19/111/15 53/112/15 52/113/21 51/114/21 50/115/21 49/116/21 48/117/21 44/118/21 54/119/20 

vt 107.033 317.072
vn 0.981021 -0.0152132 0.193303
v -0.0126957 9.11788 3.53041
vt 12.6132 317.072
v -0.0126957 1.91016 2.96315
vt 34.5249 33.2711
vt 128.945 33.2711
f 52/120/22 55/121/22 56/122/22 53/123/22 

vt 95.395 467.809
f 51/124/22 55/121/22 52/120/22

vt 12.8887 316.949
vn 0.977848 -0.00629803 0.20922
vt 95.6968 467.671
v -0.0126957 12.9461 3.64565
vt 8.45211 467.671
f 55/125/23 51/126/23 57/127/23

vt 84.0975 618.538
vn 0.977735 -0.0164641 0.209196
vt 8.45211 467.798
vt 95.6968 467.798
f 50/128/24 57/129/24 51/130/24

vt 8.79149 467.678
vn 0.973663 -0.00686006 0.227891
vt 84.4705 618.401
v -0.0126957 16.7744 3.76089
vt 4.37387 618.401
f 57/131/25 50/132/25 58/133/25

vt 73.3648 763.471
vn 0.973529 -0.0179329 0.22786
vt 4.37387 618.523
vt 84.4705 618.523
f 49/134/26 58/135/26 50/136/26

vt 5.54076 618.021
vn 0.957351 0.0120451 0.288675
vt 74.5586 762.956
v -0.0126957 20.4662 3.60684
vt 11.3472 763.378
f 58/137/27 49/138/27 59/139/27

vt 69.1027 835.874
vn 0.957107 -0.0227324 0.288843
vt 11.351 763.814
vt 74.5624 763.392
f 48/140/28 59/141/28 49/142/28

vt 12.0976 763.337
vn 0.943083 0.0138641 0.33227
vt 69.864 835.385
vt 14.9576 836.017
f 59/143/29 48/144/29 2/145/29

vt 64.4929 908.269
vn 0.942697 -0.0261779 0.332622
vt 14.9646 836.414
vt 69.8709 835.782
f 44/146/30 2/147/30 48/148/30

vt 30.3543 788.143
vn -0.102568 0.555445 0.825203
vt -7.11475 788.605
vt 17.9238 701.762
f 44/149/31 1/150/31 2/151/31

vt 35.5582 121.701
vn 9.78443e-15 0.996917 0.0784591
v -0.47634 24.1366 2.35938
vt 0.938681 126.259
v -0.428388 24.1275 2.47479
vt 2.82656 121.701
v -0.352107 24.1197 2.5739
vt 5.82975 117.787
v -0.252696 24.1137 2.64994
vt 9.74358 114.784
v -0.136929 24.11 2.69775
vt 14.3013 112.896
v -0.0126957 24.1087 2.71405
vt 19.1924 112.252
v 0.111537 24.11 2.69775
vt 24.0835 112.896
v 0.227304 24.1137 2.64994
vt 28.6412 114.784
v 0.326716 24.1197 2.5739
vt 32.555 117.787
f 54/152/32 44/74/32 1/87/32 60/153/32 61/154/32 62/155/32 63/156/32 64/157/32 65/158/32 66/159/32 67/160/32 68/161/32 

vt 7.16475 -49.1448
vn 0.012216 0.999822 -0.0143889
vt 38.6417 -28.814
vt -6.78073 -4.50669
f 44/162/33 1/163/33 3/164/33

vt 15.8634 835.966
vn 0.920644 0.0162756 0.390063
vt 65.4137 907.806
vt 18.6554 908.648
f 2/165/34 44/166/34 3/167/34

vt -130.283 1.30446
vn -0.991445 -0.010241 0.130124
vt -125.364 0.920688
vn -0.965926 -0.0203067 0.258021
vt -60.191 836.172
vt -54.5859 908.006
vt -59.5043 908.39
vt -70.8281 763.266
vt -82.1519 618.141
vt -93.9129 467.414
vt -106.747 302.931
vt -127.817 32.9043
f 8/168/35 29/169/36 5/170/36 60/171/36 1/172/35 6/173/35 12/174/35 11/175/35 10/176/35 9/177/35 

vt -116.623 -0.377988
vt -111.703 -0.735746
vn -0.866025 -0.0392295 0.498459
vt -45.7216 906.711
vt -50.6419 907.069
vt -55.8671 835.206
f 29/178/36 28/179/37 61/180/37 60/181/36 5/182/36 

vt -95.1974 -2.90768
vt -90.2737 -3.21511
vn -0.707107 -0.055479 0.704927
vt -33.5752 904.859
vt -38.4989 905.166
f 28/183/37 27/184/38 62/185/38 61/186/37 

vt -67.4252 -5.6142
vt -62.4975 -5.85028
vn -0.5 -0.0679476 0.863356
vt -18.9564 902.95
vt -23.884 903.186
f 27/187/38 26/188/39 63/189/39 62/190/38 

vt -35.1742 -7.77908
vt -30.2431 -7.92759
vn -0.258819 -0.0757857 0.962948
vt -2.85306 901.503
vt -7.7841 901.651
f 26/191/39 25/192/40 64/193/40 63/194/39 

vt -0.64764 -8.82825
vt 4.28537 -8.87893
vn 5.64101e-15 -0.0784591 0.996917
v -0.0126957 2.0663 0.979281
vt 4.68957 30.4682
vt 13.6314 900.916
vt 8.69835 900.966
f 25/195/40 24/196/41 69/197/41 65/198/41 64/199/40 

vt 33.769 -8.48801
vt 38.702 -8.43733
vn 0.258819 -0.0757857 0.962948
vt 29.3561 901.357
vt 24.423 901.307
vt 33.3648 30.8591
f 24/200/41 23/201/42 66/202/42 65/203/41 69/204/41 

vt 65.69 -6.86
vt 70.621 -6.71149
vn 0.5 -0.0679476 0.863356
vt 43.2309 902.719
vt 38.2999 902.57
f 23/205/42 22/206/43 67/207/43 66/208/42 

vt 92.9154 -4.39295
vt 97.843 -4.15686
vn 0.707107 -0.055479 0.704927
vt 54.3019 904.643
vt 49.3742 904.407
f 22/209/43 21/210/44 68/211/44 67/212/43 

vt 113.596 -1.75894
vt 118.519 -1.45151
vt 61.8206 906.623
vt 56.8969 906.315
f 21/213/44 20/214/20 54/215/20 68/216/44 

vt 4.26585 617.865
vn -0.974836 -0.0174902 0.222234
vt -69.6208 763.004
vt -80.756 617.865
f 58/217/45 6/218/45 12/219/45

vt -68.5848 763.586
vn -0.960655 0.011579 0.277504
vt 5.32633 618.459
vt -0.500061 763.815
f 6/220/46 58/221/46 59/222/46

vt -60.9941 835.211
vn -0.960112 -0.0342713 0.277508
vt -68.5817 762.266
vt -0.496951 762.495
f 4/223/47 6/224/47 59/225/47

vt -59.8731 836.519
vn -0.942929 0.0138822 0.332704
vt 0.66695 763.839
vt -2.19258 836.519
vt -57.052 836.519
f 4/226/48 59/227/48 2/228/48 5/229/48 

vt -80.756 618.148
vn -0.974964 -0.00669065 0.222263
vt -0.157664 467.426
vt 4.26585 618.148
f 12/230/49 57/231/49 58/232/49

vt -0.505954 467.189
vn -0.978632 -0.0161328 0.204986
vt -81.0739 617.928
vt -92.6838 467.189
f 57/233/50 12/234/50 11/235/50

vt -92.6838 467.438
vn -0.978741 -0.00617126 0.205009
vt -4.94659 316.716
vt -0.505954 467.438
f 11/236/51 55/237/51 57/238/51

vt -5.25805 316.506
vn -0.981636 -0.0149671 0.190175
vt -92.9712 467.242
vt -105.679 302.749
vt -126.542 32.7057
vt -27.1834 32.7057
f 55/239/52 11/240/52 10/241/52 9/242/52 56/243/52 

